HIERARCHY
ROOT Hips
{
	OFFSET 0.000000 0.000000 0.000000
	CHANNELS 6 Xposition Yposition Zposition Zrotation Yrotation Xrotation 
	JOINT LowerBack
	{
		OFFSET 0.000000 0.000000 0.000000
		CHANNELS 3 Zrotation Yrotation Xrotation
		JOINT Spine
		{
			OFFSET 0.028270 2.035590 -0.193380
			CHANNELS 3 Zrotation Yrotation Xrotation
			JOINT Spine1
			{
				OFFSET 0.056720 2.048850 -0.042750
				CHANNELS 3 Zrotation Yrotation Xrotation
				JOINT Neck
				{
					OFFSET 0.000000 0.000000 0.000000
					CHANNELS 3 Zrotation Yrotation Xrotation
					JOINT Neck1
					{
						OFFSET -0.054170 1.746240 0.172020
						CHANNELS 3 Zrotation Yrotation Xrotation
						JOINT Head
						{
							OFFSET 0.104070 1.761360 -0.123970
							CHANNELS 3 Zrotation Yrotation Xrotation
							End Site
							{
								OFFSET 0.000000 0.000000 0.000000
							}
						}
					}
				}
				JOINT LeftShoulder
				{
					OFFSET 0.000000 0.000000 0.000000
					CHANNELS 3 Zrotation Yrotation Xrotation
					JOINT LeftArm
					{
						OFFSET 3.362410 1.200890 -0.311210
						CHANNELS 3 Zrotation Yrotation Xrotation
						JOINT LeftForeArm
						{
							OFFSET 4.983000 -0.000000 -0.000000
							CHANNELS 3 Zrotation Yrotation Xrotation
							JOINT LeftHand
							{
								OFFSET 3.483560 -0.000000 -0.000000
								CHANNELS 3 Zrotation Yrotation Xrotation
								JOINT LeftFingerBase
								{
									OFFSET 0.000000 0.000000 0.000000
									CHANNELS 3 Zrotation Yrotation Xrotation
									JOINT LeftHandIndex1
									{
										OFFSET 0.715260 -0.000000 -0.000000
										CHANNELS 3 Zrotation Yrotation Xrotation
										End Site
										{
											OFFSET 0.000000 0.000000 0.000000
										}
									}
								}
								JOINT LThumb
								{
									OFFSET 0.000000 0.000000 0.000000
									CHANNELS 3 Zrotation Yrotation Xrotation
									End Site
									{
										OFFSET 0.000000 0.000000 0.000000
									}
								}
							}
						}
					}
				}
				JOINT RightShoulder
				{
					OFFSET 0.000000 0.000000 0.000000
					CHANNELS 3 Zrotation Yrotation Xrotation
					JOINT RightArm
					{
						OFFSET -3.136600 1.374050 -0.404650
						CHANNELS 3 Zrotation Yrotation Xrotation
						JOINT RightForeArm
						{
							OFFSET -5.241900 -0.000000 -0.000000
							CHANNELS 3 Zrotation Yrotation Xrotation
							JOINT RightHand
							{
								OFFSET -3.444170 -0.000000 -0.000000
								CHANNELS 3 Zrotation Yrotation Xrotation
								JOINT RightFingerBase
								{
									OFFSET 0.000000 0.000000 0.000000
									CHANNELS 3 Zrotation Yrotation Xrotation
									JOINT RightHandIndex1
									{
										OFFSET -0.622530 -0.000000 -0.000000
										CHANNELS 3 Zrotation Yrotation Xrotation
										End Site
										{
											OFFSET 0.000000 0.000000 0.000000
										}
									}
								}
								JOINT RThumb
								{
									OFFSET 0.000000 0.000000 0.000000
									CHANNELS 3 Zrotation Yrotation Xrotation
									End Site
									{
										OFFSET 0.000000 0.000000 0.000000
									}
								}
							}
						}
					}
				}
			}
		}
	}
}
}
MOTION
Frames: 18
Frame Time: 0.008333
10.637301 15.903910 1.566212 152.475540 -86.069486 -100.844000 0.194387 -2.377242 -5.936121 -0.708267 -2.642854 -4.193439 -5.572276 -2.869541 1.389753 11.051130 -9.666252 -14.620462 -2.543744 -0.075271 -2.518990 0.000000 0.000000 0.000000 -1.476078 10.222908 4.138862 -68.191058 5.503344 -18.965871 -1.024072 -26.143889 -0.034977 25.202942 -3.004406 -0.696403 -0.116262 0.096614 -0.000000 0.000000 0.000000 0.000000 0.000000 0.000000 0.000000 14.151611 -7.375368 3.974086 71.115330 -1.248188 -30.286237 0.819973 18.009485 -0.027269 -17.314992 13.155744 -2.060083 0.141904 -0.206491 -0.000000 0.000000 0.000000 0.000000 0.000000 0.000000 0.000000 
10.622000 15.854381 1.561026 149.697126 -86.105822 -97.436638 0.179091 -2.402205 -6.155763 -0.716653 -2.673755 -4.249345 -5.568786 -2.902862 1.375937 11.099064 -9.743903 -14.708648 -2.549703 -0.074119 -2.555980 0.000000 0.000000 0.000000 -1.518967 10.230546 4.156738 -68.178603 5.390884 -18.761464 -1.003968 -26.497808 -0.035833 25.228819 -2.953192 -0.686103 -0.117377 0.098420 -0.000000 0.000000 0.000000 0.000000 0.000000 0.000000 0.000000 14.285944 -7.456795 3.990553 71.145639 -1.117784 -29.962472 0.798993 18.407286 -0.027996 -17.338799 13.062990 -2.048883 0.142630 -0.208442 -0.000000 0.000000 0.000000 0.000000 0.000000 0.000000 0.000000 
10.606643 15.798959 1.555719 146.690977 -86.129750 -93.792336 0.158673 -2.428558 -6.379416 -0.726819 -2.705881 -4.307117 -5.566702 -2.937471 1.359837 11.149460 -9.814584 -14.792692 -2.558496 -0.073309 -2.591837 0.000000 0.000000 0.000000 -1.560810 10.225238 4.175315 -68.178732 5.291206 -18.578761 -0.983188 -26.845163 -0.036676 25.243705 -2.899097 -0.674703 -0.118385 0.100204 -0.000000 0.000000 0.000000 0.000000 0.000000 0.000000 0.000000 14.434366 -7.531614 4.006809 71.173954 -1.004345 -29.643916 0.778679 18.807094 -0.028682 -17.350675 12.984768 -2.038482 0.143291 -0.210463 -0.000000 0.000000 0.000000 0.000000 0.000000 0.000000 0.000000 
10.591469 15.737262 1.550476 143.563028 -86.141340 -90.024417 0.136628 -2.454670 -6.604771 -0.737574 -2.737783 -4.365407 -5.565228 -2.971859 1.344313 11.203045 -9.887107 -14.875742 -2.568558 -0.072647 -2.627381 0.000000 0.000000 0.000000 -1.600697 10.218394 4.193514 -68.195320 5.192712 -18.420466 -0.961525 -27.181940 -0.037516 25.249985 -2.843305 -0.662803 -0.119300 0.101981 -0.000000 0.000000 0.000000 0.000000 0.000000 0.000000 0.000000 14.593088 -7.608607 4.022152 71.198321 -0.894029 -29.327553 0.759516 19.196735 -0.029315 -17.353492 12.925880 -2.030081 0.143914 -0.212550 -0.000000 0.000000 0.000000 0.000000 0.000000 0.000000 0.000000 
10.576358 15.668754 1.545447 140.397905 -86.141826 -86.217440 0.116516 -2.479644 -6.832031 -0.747904 -2.768869 -4.424187 -5.564152 -3.005451 1.329541 11.259408 -9.960486 -14.957855 -2.579678 -0.072117 -2.662596 0.000000 0.000000 0.000000 -1.639664 10.212363 4.211255 -68.231858 5.097884 -18.291673 -0.938425 -27.514833 -0.038353 25.250967 -2.785026 -0.650104 -0.120115 0.103744 -0.000000 0.000000 0.000000 0.000000 0.000000 0.000000 0.000000 14.759972 -7.686257 4.036646 71.217652 -0.787486 -29.017596 0.741479 19.573651 -0.029899 -17.350235 12.888127 -2.024180 0.144512 -0.214711 -0.000000 0.000000 0.000000 0.000000 0.000000 0.000000 0.000000 
10.561338 15.593000 1.540714 137.237924 -86.133500 -82.416624 0.100912 -2.503441 -7.063514 -0.757164 -2.799418 -4.484768 -5.564054 -3.038610 1.312817 11.316892 -10.022768 -15.035424 -2.593177 -0.071914 -2.696257 0.000000 0.000000 0.000000 -1.679055 10.198748 4.229432 -68.290956 5.026101 -18.199337 -0.913625 -27.861107 -0.039180 25.250397 -2.718319 -0.635505 -0.120787 0.105427 -0.000000 0.000000 0.000000 0.000000 0.000000 0.000000 0.000000 14.933665 -7.751059 4.050938 71.233796 -0.700784 -28.724879 0.724562 19.946870 -0.030443 -17.342115 12.866227 -2.020279 0.145072 -0.216923 -0.000000 0.000000 0.000000 0.000000 0.000000 0.000000 0.000000 
10.546619 15.509870 1.536591 134.216847 -86.126280 -78.761595 0.100474 -2.523314 -7.291491 -0.762111 -2.827144 -4.542628 -5.562482 -3.068817 1.303549 11.378325 -10.106648 -15.121303 -2.603977 -0.071336 -2.732348 0.000000 0.000000 0.000000 -1.721182 10.217129 4.244913 -68.374317 4.925018 -18.132790 -0.886622 -28.190026 -0.040019 25.253693 -2.656690 -0.622107 -0.121391 0.107134 -0.000000 0.000000 0.000000 0.000000 0.000000 0.000000 0.000000 15.106659 -7.837963 4.063179 71.240404 -0.580416 -28.434613 0.708874 20.277071 -0.030945 -17.338629 12.866487 -2.020277 0.145699 -0.219186 -0.000000 0.000000 0.000000 0.000000 0.000000 0.000000 0.000000 
10.531953 15.419040 1.532986 131.260240 -86.119760 -75.177401 0.114157 -2.541372 -7.525271 -0.763629 -2.854544 -4.603451 -5.562710 -3.098877 1.289613 11.438570 -10.165201 -15.199744 -2.618771 -0.071306 -2.765883 0.000000 0.000000 0.000000 -1.769665 10.223419 4.261667 -68.481781 4.866554 -18.108124 -0.857318 -28.551926 -0.040832 25.265129 -2.582443 -0.606008 -0.121762 0.108651 -0.000000 0.000000 0.000000 0.000000 0.000000 0.000000 0.000000 15.284121 -7.895711 4.076079 71.245006 -0.495114 -28.178890 0.693969 20.608818 -0.031440 -17.336772 12.872455 -2.021476 0.146294 -0.221444 -0.000000 0.000000 0.000000 0.000000 0.000000 0.000000 0.000000 
10.517372 15.320543 1.530173 128.428721 -86.125623 -71.728980 0.152150 -2.555596 -7.755847 -0.758618 -2.880021 -4.662266 -5.562307 -3.126943 1.280857 11.500477 -10.231462 -15.283781 -2.632457 -0.071109 -2.800981 0.000000 0.000000 0.000000 -1.828328 10.259710 4.276486 -68.611682 4.792579 -18.109230 -0.825375 -28.908724 -0.041636 25.290618 -2.510780 -0.590811 -0.121979 0.110084 -0.000000 0.000000 0.000000 0.000000 0.000000 0.000000 0.000000 15.459407 -7.960400 4.087548 71.241469 -0.386807 -27.941087 0.679694 20.898608 -0.031927 -17.345242 12.888347 -2.025376 0.146960 -0.223687 -0.000000 0.000000 0.000000 0.000000 0.000000 0.000000 0.000000 
10.502809 15.214548 1.528061 125.674978 -86.146745 -68.372995 0.216056 -2.566342 -7.985421 -0.746912 -2.904242 -4.720808 -5.562675 -3.153781 1.273158 11.562321 -10.289170 -15.368144 -2.647431 -0.071074 -2.835927 0.000000 0.000000 0.000000 -1.900560 10.311118 4.290508 -68.761424 4.727433 -18.137980 -0.790914 -29.274621 -0.042406 25.335345 -2.436912 -0.575412 -0.121961 0.111318 -0.000000 0.000000 0.000000 0.000000 0.000000 0.000000 0.000000 15.634197 -8.014260 4.098660 71.232265 -0.276843 -27.732094 0.665867 21.157327 -0.032424 -17.365266 12.904522 -2.030674 0.147672 -0.225852 -0.000000 0.000000 0.000000 0.000000 0.000000 0.000000 0.000000 
10.488095 15.101295 1.526678 122.958907 -86.187785 -65.072743 0.309082 -2.573449 -8.210703 -0.727694 -2.927287 -4.778021 -5.563927 -3.179445 1.267456 11.623968 -10.338462 -15.453751 -2.663704 -0.071187 -2.871056 0.000000 0.000000 0.000000 -1.990591 10.384376 4.303359 -68.926921 4.660586 -18.188465 -0.753935 -29.638105 -0.043132 25.403950 -2.365569 -0.561117 -0.121667 0.112328 -0.000000 0.000000 0.000000 0.000000 0.000000 0.000000 0.000000 15.808646 -8.057898 4.109113 71.216866 -0.157288 -27.553587 0.652115 21.375099 -0.032937 -17.399141 12.919010 -2.037274 0.148429 -0.227911 -0.000000 0.000000 0.000000 0.000000 0.000000 0.000000 0.000000 
10.473029 14.981241 1.525914 120.231845 -86.250071 -61.782487 0.431150 -2.576826 -8.430005 -0.701058 -2.949141 -4.833665 -5.566570 -3.203934 1.263225 11.685305 -10.375727 -15.539278 -2.681939 -0.071533 -2.905959 0.000000 0.000000 0.000000 -2.101521 10.477658 4.314991 -69.103547 4.591456 -18.256272 -0.714600 -29.992096 -0.043795 25.500872 -2.298704 -0.548322 -0.121055 0.113060 -0.000000 0.000000 0.000000 0.000000 0.000000 0.000000 0.000000 15.984286 -8.087879 4.119019 71.195878 -0.028138 -27.406718 0.638160 21.547492 -0.033473 -17.448184 12.928950 -2.045075 0.149220 -0.229822 -0.000000 0.000000 0.000000 0.000000 0.000000 0.000000 0.000000 
10.457573 14.855072 1.525617 117.418285 -86.331196 -58.433773 0.578757 -2.577603 -8.637030 -0.667609 -2.970585 -4.885363 -5.570044 -3.227975 1.263221 11.747672 -10.408037 -15.627621 -2.701060 -0.071948 -2.941600 0.000000 0.000000 0.000000 -2.233905 10.602480 4.324653 -69.286638 4.496150 -18.330530 -0.673339 -30.312047 -0.044394 25.629515 -2.243697 -0.538627 -0.120122 0.113537 -0.000000 0.000000 0.000000 0.000000 0.000000 0.000000 0.000000 16.161257 -8.113239 4.127447 71.169642 0.128871 -27.285357 0.623602 21.657871 -0.034024 -17.514395 12.937074 -2.054477 0.150038 -0.231555 -0.000000 0.000000 0.000000 0.000000 0.000000 0.000000 0.000000 
10.427017 14.709546 1.544603 100.806926 -86.648166 -40.951908 1.485237 -2.637926 -9.313270 -0.421827 -3.134611 -5.043212 -5.573292 -3.398180 1.308942 11.635769 -10.448047 -15.707757 -2.710054 -0.072480 -2.961172 0.000000 0.000000 0.000000 -2.667533 10.775603 4.330394 -69.515785 4.535657 -18.338524 -0.640624 -30.696573 -0.044149 25.791150 -2.185530 -0.528330 -0.117216 0.111755 -0.000000 0.000000 0.000000 0.000000 0.000000 0.000000 0.000000 16.053669 -8.226767 4.099938 71.027113 0.101950 -27.058766 0.662560 21.771701 -0.033855 -17.600502 12.911102 -2.061173 0.153756 -0.232478 -0.000000 0.000000 0.000000 0.000000 0.000000 0.000000 0.000000 
10.409469 14.573024 1.544878 97.373046 -86.757704 -37.038940 1.698891 -2.611365 -9.509648 -0.371779 -3.138265 -5.094622 -5.585953 -3.405096 1.303849 11.698599 -10.434284 -15.782294 -2.737666 -0.074069 -2.991730 0.000000 0.000000 0.000000 -2.851791 10.898004 4.336560 -69.700902 4.464897 -18.435920 -0.595938 -30.968677 -0.044458 25.989114 -2.140295 -0.521837 -0.115264 0.111260 -0.000000 0.000000 0.000000 0.000000 0.000000 0.000000 0.000000 16.243235 -8.195518 4.110814 70.994954 0.250176 -27.001000 0.647754 21.794207 -0.034450 -17.702017 12.908572 -2.072976 0.154568 -0.233772 -0.000000 0.000000 0.000000 0.000000 0.000000 0.000000 0.000000 
10.390918 14.433033 1.544896 93.801607 -86.867721 -33.031494 1.912580 -2.583811 -9.682158 -0.321424 -3.141117 -5.139522 -5.600232 -3.411273 1.301284 11.764533 -10.405256 -15.854688 -2.767889 -0.075940 -3.021584 0.000000 0.000000 0.000000 -3.054791 11.042818 4.341439 -69.881745 4.353348 -18.526108 -0.550341 -31.169133 -0.044680 26.221007 -2.108659 -0.519045 -0.112879 0.110468 -0.000000 0.000000 0.000000 0.000000 0.000000 0.000000 0.000000 16.441901 -8.150440 4.119833 70.963927 0.424923 -26.963075 0.631077 21.752050 -0.035061 -17.823589 12.911765 -2.088080 0.155321 -0.234850 -0.000000 0.000000 0.000000 0.000000 0.000000 0.000000 0.000000 
10.370927 14.290365 1.544703 90.184829 -86.979571 -29.018147 2.122594 -2.551859 -9.837766 -0.272324 -3.139534 -5.180469 -5.617102 -3.413104 1.298555 11.832277 -10.359372 -15.920943 -2.801426 -0.078251 -3.049258 0.000000 0.000000 0.000000 -3.276377 11.188495 4.344910 -70.058375 4.219400 -18.610940 -0.503976 -31.299710 -0.044785 26.483287 -2.085095 -0.518455 -0.110006 0.109304 -0.000000 0.000000 0.000000 0.000000 0.000000 0.000000 0.000000 16.649588 -8.088080 4.128685 70.936403 0.612172 -26.943737 0.613019 21.656545 -0.035689 -17.967300 12.921680 -2.106885 0.156029 -0.235715 -0.000000 0.000000 0.000000 0.000000 0.000000 0.000000 0.000000 
10.349370 14.146136 1.544120 86.649707 -87.082638 -25.130931 2.315271 -2.517837 -9.974921 -0.228189 -3.134390 -5.217607 -5.636811 -3.411452 1.293470 11.901758 -10.293073 -15.977954 -2.838950 -0.081107 -3.073752 0.000000 0.000000 0.000000 -3.511614 11.319081 4.347915 -70.231958 4.072451 -18.691740 -0.457174 -31.360203 -0.044776 26.769673 -2.063179 -0.518667 -0.106628 0.107790 -0.000000 0.000000 0.000000 0.000000 0.000000 0.000000 0.000000 16.867900 -8.005138 4.138081 70.916896 0.803988 -26.943885 0.593100 21.518762 -0.036341 -18.133789 12.939207 -2.129592 0.156655 -0.236378 -0.000000 0.000000 0.000000 0.000000 0.000000 0.000000 0.000000 
